<svg version="1.1" id="Layer_1" xmlns="http://www.w3.org/2000/svg" xmlns:xlink="http://www.w3.org/1999/xlink" viewBox="0 2 128 128" enable-background="new 0 2 128 128" xml:space="preserve">
	<path fill="hsl(175, 59%, 40%)" d="M123.33,67.392H4.793v-1.835h17.71v-18.5c0-12.81,3.961-22.855,11.886-30.135C42.313,9.641,52.63,6,65.34,6
		c13.214,0,23.269,3.394,30.167,10.182c6.896,6.788,10.346,16.695,10.346,29.724v19.65h17.478V67.392z M105.853,82.936H22.503
		v-2.801h83.349V82.936z M105.043,97.371H23.698c-0.151-0.66-0.286-1.334-0.408-2.015h82.055
		C105.257,96.04,105.157,96.711,105.043,97.371z M99.579,111.934l-69.165-0.076c-0.368-0.471-0.721-0.953-1.062-1.439h71.166
		C100.218,110.934,99.905,111.44,99.579,111.934z M77.249,126H54.046c-1.029-0.21-2.039-0.45-3.027-0.722h29.327
		C79.343,125.548,78.311,125.79,77.249,126z"/>
</svg>
